<svg xmlns="http://www.w3.org/2000/svg" width="900" height="1400" viewBox="0 0 900 1400"><rect width="900" height="1400" fill="#07111e"/><rect y="0" width="900" height="650" fill="#122947"/><rect y="650" width="900" height="750" fill="#13251a"/><g transform="translate(230 115)"><polygon points="0,150 210,0 420,150" fill="#202b3d" stroke="#d8e8ff" stroke-width="8"/><rect x="42" y="150" width="336" height="260" rx="22" fill="#2b3d53" stroke="#d8e8ff" stroke-width="8"/><rect x="80" y="190" width="90" height="78" fill="#ffb454"/><rect x="250" y="190" width="90" height="78" fill="#ffb454"/></g><g transform="translate(70 1110)"><rect width="245" height="118" rx="18" fill="#b21f2d" stroke="#fff0f0" stroke-width="8"/><text x="123" y="78" text-anchor="middle" font-family="Arial" font-size="38" font-weight="900" fill="white">E-181</text><circle cx="55" cy="124" r="26" fill="#10141d" stroke="#ddd" stroke-width="8"/><circle cx="190" cy="124" r="26" fill="#10141d" stroke="#ddd" stroke-width="8"/></g><path d="M310 1144 C405 1010 410 860 410 650" fill="none" stroke="#2e6cff" stroke-width="24" stroke-linecap="round"/><path d="M340 1155 C495 1040 515 860 515 650" fill="none" stroke="#2e6cff" stroke-width="24" stroke-linecap="round"/><g transform="translate(365 600)"><rect width="210" height="86" rx="18" fill="#3d4656" stroke="#eaf6ff" stroke-width="6"/><circle cx="45" cy="100" r="22" fill="#111827" stroke="#ddd" stroke-width="6"/><circle cx="165" cy="100" r="22" fill="#111827" stroke="#ddd" stroke-width="6"/><path d="M105 0 L105 -95" stroke="#d9e8ff" stroke-width="16" stroke-linecap="round"/><path d="M105 -95 C155 -170 230 -210 315 -230" fill="none" stroke="#80d7ff" stroke-width="20" stroke-linecap="round"/></g><rect x="245" y="760" width="420" height="96" rx="16" fill="#06101e" stroke="#46b0ff" stroke-width="4"/><text x="455" y="798" text-anchor="middle" font-family="Arial" font-size="29" font-weight="900" fill="#eaf6ff">Portable Master Stream</text><text x="455" y="833" text-anchor="middle" font-family="Arial" font-size="25" fill="#cfe4ff">2 × 200 ft 2½ • 500 gpm</text></svg>
