<svg xmlns="http://www.w3.org/2000/svg" width="900" height="1400" viewBox="0 0 900 1400"><rect width="900" height="1400" fill="#07111e"/><rect y="0" width="900" height="660" fill="#132947"/><rect y="660" width="900" height="740" fill="#13251a"/><g transform="translate(230 140)"><polygon points="0,150 210,0 420,150" fill="#202b3d" stroke="#d8e8ff" stroke-width="8"/><rect x="42" y="150" width="336" height="260" rx="22" fill="#2b3d53" stroke="#d8e8ff" stroke-width="8"/><rect x="175" y="270" width="70" height="140" fill="#111827" stroke="#8fb3d9" stroke-width="6"/><rect x="75" y="195" width="85" height="70" fill="#ffb454"/><rect x="260" y="195" width="85" height="70" fill="#ffb454"/></g><g transform="translate(70 1090)"><rect width="245" height="118" rx="18" fill="#b21f2d" stroke="#fff0f0" stroke-width="8"/><text x="123" y="78" text-anchor="middle" font-family="Arial" font-size="38" font-weight="900" fill="white">E-181</text><circle cx="55" cy="124" r="26" fill="#10141d" stroke="#ddd" stroke-width="8"/><circle cx="190" cy="124" r="26" fill="#10141d" stroke="#ddd" stroke-width="8"/></g><path d="M310 1144 C450 1010 475 830 475 610" fill="none" stroke="#d43d3d" stroke-width="26" stroke-linecap="round"/><circle cx="475" cy="610" r="26" fill="#ffd166" stroke="#fff" stroke-width="6"/><rect x="506" y="548" width="270" height="95" rx="16" fill="#06101e" stroke="#46b0ff" stroke-width="4"/><text x="641" y="586" text-anchor="middle" font-family="Arial" font-size="30" font-weight="900" fill="#eaf6ff">1¾ Attack Line</text><text x="641" y="623" text-anchor="middle" font-family="Arial" font-size="28" fill="#cfe4ff">200 ft • 185 @ 50</text></svg>
