<svg xmlns="http://www.w3.org/2000/svg" width="900" height="1400" viewBox="0 0 900 1400"><rect width="900" height="1400" fill="#07111e"/><rect y="0" width="900" height="650" fill="#122947"/><rect y="650" width="900" height="750" fill="#13251a"/><g transform="translate(230 120)"><polygon points="0,150 210,0 420,150" fill="#202b3d" stroke="#d8e8ff" stroke-width="8"/><rect x="42" y="150" width="336" height="260" rx="22" fill="#2b3d53" stroke="#d8e8ff" stroke-width="8"/><rect x="80" y="190" width="90" height="78" fill="#ffb454"/><rect x="250" y="190" width="90" height="78" fill="#ffb454"/></g><g transform="translate(70 1110)"><rect width="245" height="118" rx="18" fill="#b21f2d" stroke="#fff0f0" stroke-width="8"/><text x="123" y="78" text-anchor="middle" font-family="Arial" font-size="38" font-weight="900" fill="white">E-181</text><circle cx="55" cy="124" r="26" fill="#10141d" stroke="#ddd" stroke-width="8"/><circle cx="190" cy="124" r="26" fill="#10141d" stroke="#ddd" stroke-width="8"/></g><path d="M310 1165 C440 1050 455 890 455 760" fill="none" stroke="#2e6cff" stroke-width="30" stroke-linecap="round"/><circle cx="455" cy="760" r="34" fill="#ffd166" stroke="#fff" stroke-width="7"/><path d="M455 760 C355 650 310 560 260 455" fill="none" stroke="#d43d3d" stroke-width="22" stroke-linecap="round"/><path d="M455 760 C560 650 620 560 665 455" fill="none" stroke="#d43d3d" stroke-width="22" stroke-linecap="round"/><circle cx="260" cy="455" r="22" fill="#ffd166" stroke="#fff" stroke-width="5"/><circle cx="665" cy="455" r="22" fill="#ffd166" stroke="#fff" stroke-width="5"/><rect x="50" y="555" width="280" height="78" rx="16" fill="#06101e" stroke="#46b0ff" stroke-width="4"/><text x="190" y="588" text-anchor="middle" font-family="Arial" font-size="27" font-weight="900" fill="#eaf6ff">Branch A</text><text x="190" y="619" text-anchor="middle" font-family="Arial" font-size="24" fill="#cfe4ff">200 ft • 165 @ 50</text><rect x="570" y="555" width="280" height="78" rx="16" fill="#06101e" stroke="#46b0ff" stroke-width="4"/><text x="710" y="588" text-anchor="middle" font-family="Arial" font-size="27" font-weight="900" fill="#eaf6ff">Branch B</text><text x="710" y="619" text-anchor="middle" font-family="Arial" font-size="24" fill="#cfe4ff">250 ft • 150 @ 100</text><rect x="260" y="815" width="380" height="78" rx="16" fill="#06101e" stroke="#46b0ff" stroke-width="4"/><text x="450" y="848" text-anchor="middle" font-family="Arial" font-size="27" font-weight="900" fill="#eaf6ff">2½ Main to Wye</text><text x="450" y="879" text-anchor="middle" font-family="Arial" font-size="24" fill="#cfe4ff">200 ft • 315 gpm</text></svg>
